<?xml version="1.0" encoding="UTF-8"?>
<svg id="Capa_1" data-name="Capa 1" xmlns="http://www.w3.org/2000/svg" version="1.1" viewBox="0 0 504 245">
  <defs>
    <style>
      .cls-1 {
        fill: #000;
        stroke-width: 0px;
      }
    </style>
  </defs>
  <path class="cls-1" d="M447.4,232.2c5.2,2.7,11.4,4,18.5,4s13.1-1.4,18.1-4c5-2.7,8.9-6.6,11.6-11.7,2.6-5.1,4-11.2,4-18.1v-45h-17.6v44.9c0,5.3-1.5,9.5-4.4,12.4-2.9,2.9-7,4.4-12.2,4.4s-9.3-1.5-12.2-4.4c-2.9-2.9-4.3-7.1-4.3-12.4v-44.9h-17.6v45c0,7,1.4,13.1,4.1,18.1,2.8,5.1,6.8,9,11.9,11.7h0Z"/>
  <path class="cls-1" d="M448.9,145.7v-48.6l37.2,48.6h17.8v-77.6h-17.6v48.9l-37.1-48.9h-17.8v77.6h17.5Z"/>
  <path class="cls-1" d="M353.9,223.1v11.9h67.5v-15.9h-41.7l42.9-52.1v-9.6h-146.7v15.9h28.4v61.7h17.6v-61.7h74.2l-42.2,49.8Z"/>
  <path class="cls-1" d="M325.4,69.6c-4.9-2.1-10.5-3.1-16.8-3.1s-11.9,1-16.5,2.9c-4.7,2-8.3,4.8-10.8,8.6-2.5,3.7-3.8,8.1-3.8,13.1s1.4,10.6,4.3,13.8c2.8,3.2,6.3,5.4,10.2,6.5,3.9,1.1,8.9,2,15,2.7,4,.5,7.1,1,9.2,1.5,2.1.4,3.8,1.2,5.3,2.3,1.4,1.1,2,2.5,2,4.4s-1.2,4.7-3.6,6.3c-2.4,1.6-5.9,2.4-10.4,2.4s-8.2-1.1-10.7-3.2c-2.5-2.2-3.8-5.1-4-8.9v-.4h-19.7v.4c0,5.8,1.4,10.8,4.3,15.1,2.9,4.3,6.9,7.6,12,9.8,5.1,2.2,11,3.4,17.7,3.4s12.4-1.1,17.3-3.1c4.9-2.1,8.7-5.1,11.4-8.8,2.6-3.8,4-8.2,4-13.2s-1.4-10.6-4.2-13.8c-2.8-3.2-6.2-5.3-10.1-6.4-3.9-1.1-8.9-2-14.9-2.7-4-.4-7.2-.9-9.4-1.4-2.2-.5-4-1.3-5.4-2.4-1.4-1.1-2.1-2.6-2.1-4.7s1.1-4.4,3.2-5.8c2.2-1.4,5.4-2.1,9.4-2.1s7.2.9,9.4,2.6c2.3,1.7,3.5,4.1,3.8,7.2v.3h19.5v-.4c0-5.3-1.4-10-4.1-13.9-2.7-3.9-6.6-6.9-11.5-9h0Z"/>
  <path class="cls-1" d="M385.5,129.8c-5.2,0-9.3-1.5-12.2-4.4-2.9-2.9-4.3-7.1-4.3-12.4v-44.9h-17.6v45c0,7,1.4,13.1,4.1,18.1,2.8,5.1,6.8,9,11.9,11.7,5.2,2.7,11.4,4,18.5,4s13.1-1.4,18.1-4c5-2.7,9-6.6,11.6-11.7,2.6-5.1,4-11.2,4-18.1v-45h-17.6v44.9c0,5.3-1.5,9.5-4.4,12.4-2.9,2.9-7,4.4-12.2,4.4h0Z"/>
  <path class="cls-1" d="M148.6,208.4h-33.8v-3.5c1.1-.6,2.1-1.3,3.3-2.1,4.8-3.2,9.2-6.6,13.3-10.4h92.2c3.8-5.4,7.1-11.1,10-17.1-1.7-2-3.2-4.1-4.7-6.2-6.8-9.8-11.3-20.6-13.4-31.9-.8-4.5-1.2-9.1-1.2-13.7v-2.7h18.6v2.7c0,11,3.1,21.4,8.5,30.7,2.7-10.1,4.2-20.8,4.2-31.8s-.2-7.2-.5-10.8h-.1c-.4,0-.9,0-1.3,0-.6,0-1.2,0-1.8,0-5,0-9.9-.5-14.6-1.6-7.5-1.7-14.6-4.6-21.1-8.8-9.6-6.2-17.5-14.6-22.9-24.7-5.4,10-13.3,18.5-22.9,24.7-6.5,4.2-13.6,7.1-21.1,8.8-4.8,1.1-9.7,1.6-14.6,1.6s-1.2,0-1.8,0c-.4,0-.9,0-1.3,0h-1.3v-15.8h1.4c1,.1,2,.2,2.9.2,28,0,50.7-22.7,50.7-50.6v-4.2h15.8v4.2c0,27.9,22.8,50.6,50.7,50.6s.5,0,.8,0C230.4,41.1,181.4,0,122.7,0S0,54.8,0,122.5s35.9,100.9,85.4,116.7v-32.6c-11.4,3.7-23.4,5.5-35.7,5.5h-2.7v-18.5h2.7c46.2,0,83.9-31.4,83.9-70.1v-2.7h18.6v2.7c0,4.6-.4,9.2-1.2,13.7-2,11.3-6.5,22.1-13.4,31.9-6.7,9.6-15.2,17.9-25.5,24.7-1.6,1.1-3.1,2-4.5,2.8-1.2.7-2.4,1.4-3.6,2v44.9c6.1.9,12.4,1.4,18.7,1.4s17.5-.9,25.9-2.7v-33.9h0ZM162.9,123.6v-1.3h40.5v1.3c0,4.9.4,9.8,1.2,14.6h-42.9c.8-4.8,1.2-9.7,1.2-14.6ZM156.2,157.3h53.9c2.3,5.5,5.1,10.8,8.5,16h-70.8c3.4-5.1,6.2-10.4,8.5-16Z"/>
  <path class="cls-1" d="M164.6,237.7c13.7-5,26.2-12.3,37.2-21.5v-7.8h-37.2v29.3Z"/>
</svg>